<svg width="203" height="203" viewBox="0 0 203 203" fill="none" xmlns="http://www.w3.org/2000/svg">
<path d="M10.6066 111.723C4.74875 105.865 4.74874 96.3675 10.6066 90.5096L26.1124 75.0038L127.228 176.12L111.723 191.626C105.865 197.484 96.3673 197.484 90.5095 191.626L10.6066 111.723Z" fill="#404040"/>
<path d="M17.7791 83.3369L54.397 46.719C60.2548 40.8611 69.7523 40.8611 75.6102 46.719L87.5804 58.6892C89.533 60.6419 89.533 63.8077 87.5804 65.7603L43.8914 109.449L17.7791 83.3369Z" fill="#404040"/>
<path d="M85.6936 36.6369C79.8358 30.779 79.8358 21.2815 85.6936 15.4237L97.5814 3.53595C99.534 1.58333 102.7 1.58333 104.652 3.53595L142.258 41.1417L116.228 67.1716L85.6936 36.6369Z" fill="#404040"/>
<path d="M146.124 97.0678C143.726 94.6704 145.212 90.5647 148.588 90.256L185.92 86.8418C187.103 86.7336 188.272 87.1568 189.112 87.9968L199.403 98.2878C200.966 99.8499 200.966 102.383 199.403 103.945L179.03 124.318C177.468 125.88 174.936 125.88 173.374 124.318L146.124 97.0678Z" fill="#404040"/>
<path d="M75.7606 104.652C73.808 102.699 73.808 99.5333 75.7606 97.5807L137.228 36.113L162.583 61.4678C164.536 63.4204 164.536 66.5863 162.583 68.5389L104.651 126.471C102.698 128.424 99.5325 128.424 97.5799 126.471L75.7606 104.652Z" fill="#404040"/>
<path d="M92.7827 158.342L136.472 114.653C138.424 112.701 141.59 112.701 143.543 114.653L155.513 126.624C161.371 132.481 161.371 141.979 155.513 147.837L118.895 184.455L92.7827 158.342Z" fill="#404040"/>
<path d="M55.8396 104.724C55.6737 104.567 55.5185 104.412 55.3738 104.259L54.4506 103.335L52.2283 101.113L56.3255 97.0159C53.4478 99.8937 53.0338 101.786 55.3738 104.259L55.8396 104.724Z" fill="#404040"/>
<path d="M107.613 58.5055C107.779 58.6632 107.934 58.8184 108.079 58.9713L109.002 59.8945L111.225 62.1168L107.127 66.2141C110.005 63.3363 110.419 61.444 108.079 58.9713L107.613 58.5055Z" fill="#404040"/>
<path d="M104.946 146.282C104.781 146.455 104.619 146.618 104.459 146.769L103.493 147.735L101.168 150.06L97.0712 145.963C99.949 148.84 101.875 149.22 104.459 146.769L104.946 146.282Z" fill="#404040"/>
</svg>
