<svg width="203" height="204" viewBox="0 0 203 204" fill="none" xmlns="http://www.w3.org/2000/svg">
<path d="M10.6066 112.723C4.74875 106.865 4.74874 97.3675 10.6066 91.5096L26.1124 76.0038L127.228 177.12L111.723 192.626C105.865 198.484 96.3673 198.484 90.5095 192.626L10.6066 112.723Z" fill="#404040"/>
<path d="M17.7791 84.3369L54.397 47.719C60.2548 41.8611 69.7523 41.8611 75.6102 47.719L87.5804 59.6892C89.533 61.6419 89.533 64.8077 87.5804 66.7603L43.8914 110.449L17.7791 84.3369Z" fill="#404040"/>
<path d="M85.6936 37.6369C79.8358 31.779 79.8358 22.2815 85.6936 16.4237L97.5814 4.53595C99.534 2.58333 102.7 2.58333 104.652 4.53595L142.258 42.1417L116.228 68.1716L85.6936 37.6369Z" fill="#404040"/>
<path d="M146.918 98.8616C144.398 96.3418 146.182 92.0332 149.746 92.0332H190.801C191.887 92.0332 192.926 92.4743 193.68 93.2553L199.503 99.2887C201.018 100.858 200.996 103.352 199.453 104.895L179.03 125.318C177.468 126.88 174.936 126.88 173.374 125.318L146.918 98.8616Z" fill="#22C55E"/>
<path d="M75.7606 105.652C73.808 103.699 73.808 100.533 75.7606 98.5807L137.228 37.113L162.583 62.4678C164.536 64.4204 164.536 67.5863 162.583 69.5389L104.651 127.471C102.698 129.424 99.5325 129.424 97.5799 127.471L75.7606 105.652Z" fill="#404040"/>
<path d="M92.7827 159.342L136.472 115.653C138.424 113.701 141.59 113.701 143.543 115.653L155.513 127.624C161.371 133.481 161.371 142.979 155.513 148.837L118.895 185.455L92.7827 159.342Z" fill="#404040"/>
<path d="M55.8396 105.724C55.6737 105.567 55.5185 105.412 55.3738 105.259L54.4506 104.335L52.2283 102.113L56.3255 98.0159C53.4478 100.894 53.0338 102.786 55.3738 105.259L55.8396 105.724Z" fill="#404040"/>
<path d="M107.613 59.5055C107.779 59.6632 107.934 59.8184 108.079 59.9713L109.002 60.8945L111.225 63.1168L107.127 67.2141C110.005 64.3363 110.419 62.444 108.079 59.9713L107.613 59.5055Z" fill="#404040"/>
<path d="M104.946 147.282C104.781 147.455 104.619 147.618 104.459 147.769L103.493 148.735L101.168 151.06L97.0712 146.963C99.949 149.84 101.875 150.22 104.459 147.769L104.946 147.282Z" fill="#404040"/>
</svg>
